<?xml version="1.0" standalone="no"?>
<!DOCTYPE svg PUBLIC "-//W3C//DTD SVG 20010904//EN"
 "http://www.w3.org/TR/2001/REC-SVG-20010904/DTD/svg10.dtd">
<svg version="1.0" xmlns="http://www.w3.org/2000/svg"
 width="700.000000pt" height="700.000000pt" viewBox="0 0 700.000000 700.000000"
 preserveAspectRatio="xMidYMid meet">
<metadata>
Created by potrace 1.11, written by Peter Selinger 2001-2013
</metadata>
<g transform="translate(0.000000,700.000000) scale(0.100000,-0.100000)"
fill="#000000" stroke="none">
<path d="M3944 6990 c-33 -13 -62 -56 -69 -103 -6 -37 -28 -152 -80 -417 -9
-47 -18 -96 -21 -110 -2 -14 -7 -36 -9 -50 -3 -14 -8 -38 -11 -55 -3 -16 -11
-61 -19 -100 -8 -38 -16 -82 -19 -98 -3 -15 -17 -93 -33 -174 l-27 -146 -26
54 c-38 82 -86 189 -155 344 -35 77 -76 169 -93 205 -16 36 -71 157 -122 270
-50 113 -99 217 -108 232 -33 56 -122 63 -168 13 -13 -14 -25 -29 -26 -33 -1
-4 -2 -409 -3 -900 -1 -490 -4 -894 -6 -896 -2 -2 -56 -11 -119 -20 -143 -19
-199 -30 -475 -91 -215 -47 -390 -167 -479 -328 -41 -75 -82 -193 -92 -264 -3
-29 -12 -53 -18 -54 -6 -1 -364 -2 -796 -3 -737 -1 -787 -2 -811 -19 -42 -28
-52 -65 -46 -164 5 -76 10 -109 21 -158 46 -196 154 -348 295 -420 70 -35 353
-124 476 -150 6 -1 30 -7 55 -14 25 -7 54 -15 65 -17 11 -2 82 -19 158 -39 77
-19 149 -37 160 -39 12 -3 60 -15 107 -26 47 -12 92 -23 100 -25 8 -2 60 -15
115 -30 55 -14 107 -28 116 -30 10 -2 68 -17 130 -35 498 -136 645 -257 673
-551 4 -36 8 -76 11 -90 2 -13 6 -53 9 -89 4 -36 8 -75 10 -85 2 -11 7 -51 11
-90 4 -38 8 -81 10 -95 2 -14 6 -52 10 -85 3 -33 8 -71 10 -85 2 -14 7 -45 10
-70 3 -25 8 -62 11 -83 5 -30 1 -43 -20 -68 -14 -17 -26 -36 -27 -42 0 -7 0
-295 0 -641 1 -532 4 -633 16 -652 29 -44 63 -47 455 -40 201 4 392 8 425 10
33 3 116 7 185 11 69 3 148 8 175 10 28 2 88 7 135 10 110 8 183 14 245 20 28
3 73 8 100 10 82 8 428 51 485 60 14 3 81 14 150 25 69 12 136 23 150 26 14 3
36 7 50 10 14 2 57 11 96 20 39 8 77 16 85 18 192 35 532 133 740 212 257 97
499 233 535 299 15 28 16 59 11 286 -7 288 -10 336 -37 544 -65 513 -202 991
-396 1385 -273 556 -656 978 -1144 1263 -85 49 -322 167 -336 167 -3 0 -20 6
-37 14 -18 8 -68 27 -112 42 -44 15 -84 31 -89 35 -9 8 -11 18 -21 154 -4 50
-9 98 -10 107 -2 9 -6 43 -10 75 -3 33 -8 70 -10 84 -2 13 -16 94 -30 179 -28
167 -101 536 -115 585 -5 17 -12 46 -15 65 -3 19 -13 62 -21 95 -17 66 -20 78
-34 145 -15 78 -150 603 -162 634 -21 52 -89 78 -144 56z m152 -995 c9 -38 17
-77 19 -85 8 -35 39 -190 50 -247 3 -16 10 -49 16 -75 6 -25 12 -57 14 -70 1
-12 8 -54 14 -93 7 -38 14 -81 16 -95 2 -14 6 -38 9 -55 12 -72 25 -164 30
-210 11 -104 16 -152 21 -209 l5 -58 -34 6 c-18 4 -65 7 -102 7 -304 2 -551
-182 -630 -469 -22 -79 -26 -250 -7 -337 29 -140 117 -285 221 -365 l44 -34
-7 -90 c-4 -50 -8 -109 -10 -131 -4 -45 -23 -199 -29 -230 -2 -11 -7 -45 -11
-75 -4 -30 -9 -64 -12 -75 -2 -11 -8 -45 -14 -75 -33 -172 -102 -397 -170
-553 -135 -306 -329 -512 -553 -587 -80 -28 -80 -28 -92 74 -4 39 -9 78 -10
86 -2 14 -5 40 -19 150 -5 45 -16 145 -20 190 -5 49 -16 140 -20 170 -2 14 -6
52 -10 85 -11 104 -15 128 -36 195 -92 292 -300 438 -826 579 -98 27 -733 187
-773 196 -8 2 -69 17 -135 34 -66 18 -131 34 -145 37 -33 7 -98 27 -251 75
-103 33 -133 47 -164 77 -71 69 -118 163 -131 263 l-6 47 777 0 c752 0 779 1
804 20 38 27 48 57 54 152 14 210 123 365 313 445 34 14 201 58 274 71 14 3
52 11 85 19 33 7 80 16 105 20 25 3 52 8 60 10 8 2 40 7 70 11 30 3 66 8 80
10 14 2 178 4 365 5 370 1 381 3 409 58 9 16 18 44 21 62 3 19 12 68 20 109
51 264 56 297 45 324 -6 17 -6 43 0 74 5 26 12 58 14 72 2 14 11 61 20 105 9
44 18 91 20 105 3 14 7 35 10 46 2 12 7 37 10 55 3 19 8 45 11 59 7 35 9 46
39 205 15 77 31 160 36 185 6 25 12 56 14 70 3 14 5 27 6 30 2 6 74 -275 96
-375z m-861 135 c32 -69 75 -163 96 -208 22 -46 39 -86 39 -87 0 -2 24 -57 54
-122 62 -137 88 -194 128 -283 28 -61 29 -68 19 -125 -18 -97 -21 -116 -37
-190 -7 -38 -14 -73 -14 -77 0 -5 -79 -8 -175 -8 l-175 0 0 617 c0 339 2 614
4 612 2 -2 30 -60 61 -129z m1045 -1556 c117 -33 217 -119 270 -231 135 -286
-76 -622 -391 -623 -269 0 -444 181 -436 453 6 197 107 341 277 395 100 32
181 34 280 6z m525 -119 c246 -115 525 -314 714 -509 l55 -56 -25 -26 c-75
-80 -341 -225 -546 -297 -100 -36 -299 -91 -358 -100 -16 -3 -41 -8 -55 -11
-105 -25 -368 -59 -550 -71 l-55 -3 5 66 c4 48 9 66 18 64 7 -1 51 -5 97 -8
87 -6 186 6 265 32 186 63 360 245 414 434 26 92 28 116 25 255 -1 37 -40 169
-64 217 -13 26 -22 48 -20 48 3 0 38 -16 80 -35z m995 -852 l49 -72 -35 -31
c-20 -17 -74 -57 -121 -88 -91 -60 -117 -98 -107 -152 10 -49 62 -90 116 -90
19 0 136 72 224 139 l41 30 68 -136 c44 -89 64 -138 56 -141 -7 -2 -33 -22
-59 -45 -131 -113 -369 -223 -707 -326 -109 -33 -251 -72 -315 -86 -146 -32
-376 -78 -505 -100 -16 -2 -39 -7 -50 -9 -11 -2 -42 -7 -70 -10 -121 -17 -187
-26 -217 -31 -9 -2 -48 -6 -85 -10 -37 -3 -77 -8 -88 -10 -11 -2 -60 -7 -110
-10 -49 -4 -94 -10 -99 -13 -6 -3 -6 3 -2 14 15 36 63 189 81 256 16 61 19 66
39 59 30 -11 249 -3 391 14 17 2 59 7 95 10 36 4 74 9 85 11 11 2 40 6 65 9
25 4 56 9 70 11 14 3 34 6 45 8 182 29 579 135 657 177 10 5 25 23 33 39 28
55 14 114 -35 143 -37 22 -71 21 -139 -2 -197 -69 -522 -144 -716 -166 -27 -3
-61 -8 -75 -10 -73 -11 -188 -21 -368 -30 l-84 -5 6 40 c15 110 29 170 40 171
6 0 36 2 66 4 149 9 333 29 450 50 14 3 41 7 60 10 200 33 458 103 633 174
177 71 393 195 492 284 l40 36 17 -22 c10 -12 40 -54 68 -94z m433 -900 c25
-82 53 -173 62 -203 27 -101 75 -341 69 -351 -18 -30 -248 -164 -364 -214 -25
-10 -63 -26 -85 -36 -135 -57 -499 -170 -655 -204 -14 -3 -97 -20 -185 -39
-88 -19 -176 -37 -195 -40 -19 -3 -42 -7 -50 -10 -12 -5 -252 -43 -448 -71
-45 -7 -89 -31 -102 -56 -27 -50 -12 -114 34 -144 36 -24 70 -23 251 5 33 5
78 11 100 15 22 3 65 10 95 15 30 5 71 12 90 15 33 5 165 29 220 40 96 19 152
31 275 61 77 19 147 36 155 38 257 61 635 213 834 335 61 38 80 43 82 23 0 -4
4 -45 8 -92 5 -47 10 -98 11 -115 3 -34 11 -29 -176 -121 -190 -94 -346 -152
-629 -234 -146 -43 -477 -118 -630 -144 -114 -19 -140 -24 -205 -36 -27 -5
-72 -12 -100 -15 -27 -3 -61 -8 -75 -10 -64 -10 -227 -30 -365 -45 -95 -11
-133 -15 -235 -25 -59 -6 -170 -15 -245 -20 -33 -2 -100 -6 -150 -10 -140 -9
-244 -14 -455 -20 -107 -4 -217 -8 -245 -9 -27 -2 -56 -1 -62 1 -9 4 -13 35
-13 109 l0 104 73 0 c120 1 171 6 194 18 72 39 71 148 -1 187 -25 13 -53 16
-149 13 -98 -2 -117 -1 -118 12 -7 85 -5 102 15 115 12 6 48 18 81 24 139 29
268 85 375 163 113 83 253 253 335 406 28 51 29 52 74 53 25 1 57 2 71 4 14 1
61 5 105 9 44 3 91 8 105 11 14 2 52 7 85 10 64 7 115 13 155 20 14 2 45 7 70
10 141 18 325 51 670 120 8 2 90 21 182 44 462 113 763 238 958 395 25 20 48
36 51 36 3 0 26 -66 52 -147z m217 -1413 l0 -110 -52 -33 c-48 -30 -142 -78
-241 -121 -46 -21 -236 -92 -280 -105 -18 -5 -70 -21 -117 -36 -71 -21 -285
-79 -340 -90 -33 -7 -327 -65 -355 -70 -158 -27 -206 -35 -244 -40 -23 -3 -55
-7 -70 -9 -51 -9 -96 -15 -146 -21 -27 -3 -66 -7 -85 -10 -19 -3 -60 -7 -90
-10 -30 -3 -73 -7 -95 -10 -22 -2 -74 -7 -115 -10 -41 -4 -89 -8 -106 -10 -17
-2 -68 -7 -115 -10 -46 -3 -106 -8 -134 -10 -27 -2 -115 -7 -195 -10 -80 -4
-174 -9 -210 -10 -36 -2 -188 -7 -337 -10 l-273 -7 0 110 0 109 153 3 c83 1
177 3 207 5 30 1 132 6 225 10 94 4 177 8 185 10 8 2 67 6 130 10 63 4 129 8
145 10 17 1 66 6 110 10 119 11 210 20 300 30 22 3 63 7 90 10 28 3 66 7 85
10 19 3 53 7 75 10 22 3 56 7 75 10 19 3 51 8 70 10 52 7 181 26 210 31 14 3
63 12 110 20 459 82 852 190 1159 320 58 24 140 62 181 83 41 22 78 40 83 40
4 1 7 -49 7 -109z"/>
<path d="M2730 4374 c-228 -58 -419 -109 -424 -114 -14 -13 -8 -97 8 -129 18
-33 67 -67 111 -76 47 -9 175 -6 235 5 145 27 265 87 359 179 90 88 179 242
139 241 -7 -1 -200 -48 -428 -106z"/>
<path d="M5848 2481 c-47 -42 -44 -87 16 -226 59 -137 89 -170 153 -162 32 3
50 12 68 33 41 48 38 82 -20 219 -58 136 -83 165 -142 165 -33 0 -50 -7 -75
-29z"/>
<path d="M5374 2340 c-33 -13 -64 -59 -64 -94 1 -52 54 -250 76 -284 26 -39
88 -53 137 -31 30 14 57 59 57 96 0 33 -54 242 -70 272 -21 41 -87 61 -136 41z"/>
<path d="M4844 2226 c-36 -16 -66 -73 -60 -113 5 -31 19 -115 21 -123 0 -3 5
-27 9 -55 14 -90 40 -122 104 -131 47 -7 85 13 108 57 15 29 12 86 -7 177 -5
23 -12 59 -15 79 -9 56 -21 80 -48 98 -35 23 -76 27 -112 11z"/>
<path d="M4314 2150 c-12 -4 -31 -21 -44 -37 -20 -26 -22 -35 -16 -108 11
-140 23 -212 42 -240 43 -65 155 -55 185 17 11 27 9 98 -7 213 -3 22 -7 52 -8
66 -10 74 -83 117 -152 89z"/>
<path d="M3800 2103 c-79 -26 -94 -56 -85 -182 4 -53 8 -107 10 -121 2 -14 4
-35 4 -47 1 -12 15 -35 32 -52 25 -25 39 -31 76 -31 36 0 50 6 74 29 36 36 36
39 24 211 -8 116 -30 174 -71 184 -12 3 -28 8 -36 10 -7 3 -20 2 -28 -1z"/>
<path d="M3928 1485 c-2 -2 -33 -7 -68 -10 -36 -3 -90 -7 -120 -10 -30 -3 -91
-7 -135 -10 -133 -9 -158 -15 -187 -46 -50 -52 -33 -142 32 -169 27 -11 115
-10 280 5 19 1 72 6 118 10 46 4 91 8 100 10 9 2 22 4 29 4 7 1 24 12 38 25
53 49 39 151 -24 175 -45 16 -59 20 -63 16z"/>
</g>
</svg>
